<svg width="13" height="15" viewBox="0 0 13 15" fill="none" xmlns="http://www.w3.org/2000/svg">
<circle cx="6.5" cy="3.5" r="3" stroke="#1B9449"/>
<path d="M12.5 11.8885C12.5 12.6325 12.3334 13.049 12.1141 13.2979C11.8937 13.548 11.5495 13.7095 11.0196 13.7916C10.4858 13.8743 9.83059 13.8669 9.05145 13.8336C8.86552 13.8257 8.67286 13.8162 8.47459 13.8066C7.85907 13.7765 7.18959 13.7438 6.5 13.7438C5.81041 13.7438 5.14093 13.7765 4.52541 13.8066C4.32714 13.8162 4.13448 13.8257 3.94855 13.8336C3.16941 13.8669 2.5142 13.8743 1.9804 13.7916C1.45051 13.7095 1.10631 13.548 0.885935 13.2979C0.666574 13.049 0.5 12.6325 0.5 11.8885C0.5 8.95783 3.13866 6.5 6.5 6.5C9.86134 6.5 12.5 8.95783 12.5 11.8885Z" stroke="#1B9449"/>
</svg>
